HIERARCHY
ROOT root
{
	OFFSET	0	13.1	24.9
	CHANNELS 6  Xposition Yposition Zposition Xrotation Yrotation Zrotation
	JOINT spine_1
	{
		OFFSET	0	9.99999	0
		CHANNELS 3  Xrotation Yrotation Zrotation
		JOINT spine_2
		{
			OFFSET	0	112	-10
			CHANNELS 3  Xrotation Yrotation Zrotation
			JOINT spine_3
			{
				OFFSET	0	206.5	19.3
				CHANNELS 3  Xrotation Yrotation Zrotation
				JOINT spine_4
				{
					OFFSET	0	110.4	14.6
					CHANNELS 3  Xrotation Yrotation Zrotation
					JOINT neck_1
					{
						OFFSET	0	71.8	-50.3
						CHANNELS 3  Xrotation Yrotation Zrotation
						JOINT neck_2
						{
							OFFSET	0	86.2	-25.8
							CHANNELS 3  Xrotation Yrotation Zrotation
							JOINT head_ee
							{
								OFFSET	0	179.8	-8.7
								CHANNELS 3  Xrotation Yrotation Zrotation
								End Site
								{
									OFFSET	1	0	0
								}
							}
						}
					}
					JOINT left_clavicle
					{
						OFFSET	-43.2	22.4	-70.8
						CHANNELS 3  Xrotation Yrotation Zrotation
						JOINT left_shoulder
						{
							OFFSET	-93.9	-5.79999	48.7
							CHANNELS 3  Xrotation Yrotation Zrotation
							JOINT left_elbow
							{
								OFFSET	-291.4	-30.8	15.2
								CHANNELS 3  Xrotation Yrotation Zrotation
								JOINT left_lowarm_twist
								{
									OFFSET	-110.7	-3.89999	13.6
									CHANNELS 3  Xrotation Yrotation Zrotation
									JOINT left_hand
									{
										OFFSET	-110.7	-3.89999	13.6
										CHANNELS 3  Xrotation Yrotation Zrotation
										JOINT left_ee
										{
											OFFSET	-80.8	-5.10001	12.1
											CHANNELS 3  Xrotation Yrotation Zrotation
											End Site
											{
												OFFSET	1	0	0
											}
										}
									}
								}
							}
						}
					}
					JOINT right_clavicle
					{
						OFFSET	43.2	22.4	-70.8
						CHANNELS 3  Xrotation Yrotation Zrotation
						JOINT right_shoulder
						{
							OFFSET	93.9	-5.79999	48.7
							CHANNELS 3  Xrotation Yrotation Zrotation
							JOINT right_elbow
							{
								OFFSET	291.4	-30.8	15.2
								CHANNELS 3  Xrotation Yrotation Zrotation
								JOINT right_lowarm_twist
								{
									OFFSET	110.7	-3.89999	13.6
									CHANNELS 3  Xrotation Yrotation Zrotation
									JOINT right_hand
									{
										OFFSET	110.7	-3.89999	13.6
										CHANNELS 3  Xrotation Yrotation Zrotation
										JOINT right_ee
										{
											OFFSET	80.8	-5.10001	12.1
											CHANNELS 3  Xrotation Yrotation Zrotation
											End Site
											{
												OFFSET	1	0	0
											}
										}
									}
								}
							}
						}
					}
				}
			}
		}
	}
	JOINT left_hip
	{
		OFFSET	-82.8	-127.5	0.300001
		CHANNELS 3  Xrotation Yrotation Zrotation
		JOINT left_knee
		{
			OFFSET	-28.2	-396.7	2.2
			CHANNELS 3  Xrotation Yrotation Zrotation
			JOINT left_ankle
			{
				OFFSET	-11.7	-411.3	35.4
				CHANNELS 3  Xrotation Yrotation Zrotation
				JOINT left_toes
				{
					OFFSET	0	-60	-88.6
					CHANNELS 3  Xrotation Yrotation Zrotation
					JOINT left_foot_ee
					{
						OFFSET	-22.5	-16.5	-42.2
						CHANNELS 3  Xrotation Yrotation Zrotation
						End Site
						{
							OFFSET	1	0	0
						}
					}
				}
			}
		}
	}
	JOINT right_hip
	{
		OFFSET	82.8	-127.5	0.300001
		CHANNELS 3  Xrotation Yrotation Zrotation
		JOINT right_knee
		{
			OFFSET	28.2	-396.7	2.2
			CHANNELS 3  Xrotation Yrotation Zrotation
			JOINT right_ankle
			{
				OFFSET	11.7	-411.3	35.4
				CHANNELS 3  Xrotation Yrotation Zrotation
				JOINT right_toes
				{
					OFFSET	0	-60	-88.6
					CHANNELS 3  Xrotation Yrotation Zrotation
					JOINT right_foot_ee
					{
						OFFSET	22.5	-16.5	-42.2
						CHANNELS 3  Xrotation Yrotation Zrotation
						End Site
						{
							OFFSET	1	0	0
						}
					}
				}
			}
		}
	}
}
MOTION
Frames: 9
Frame Time: 0.02
765.366129459 619.707 -1613.85792187 -166.532189711 77.7891147965 160.90838484 0.533757 0.421303 2.53308 0.53729 0.259317 2.55473 0.550246 -0.258981 2.55477 0.541168 0.14761 2.56361 -17.5427 3.74313 -6.61794 -17.5587 10.8387 -4.78977 -0.0 0.0 -0.0 7.70366 -23.9939 13.9716 -7.05708 -30.5171 53.013 1.2137 -31.0144 0.336764 -52.0526 -4.31419 4.78593 -1.0406 -1.65312 -7.69732 -0.0 0.0 -0.0 9.25735 -15.9219 -16.8295 -33.5797 40.6669 -59.1743 0.377312 10.5872 -0.0349597 25.3527 -0.186461 3.20691 1.53113 22.4715 -0.527585 0.0 0.0 0.0 12.2463 -12.9786 10.3176 -0.0692782 0.00284626 0.0102504 18.9743 -2.87536 -2.64346 -18.5537 0.0 0.0 -0.0 0.0 -0.0 29.8793 -13.9452 13.722 -51.2661 1.33421 -7.49608 7.95462 -28.4219 1.21458 7.10766 -0.0 -0.0 0.0 0.0 0.0 
757.794877747 617.619 -1604.85406846 -168.958618233 75.6369413652 162.736061442 0.528683 0.38853 2.5332 0.532224 0.226602 2.55277 0.543684 -0.290959 2.54624 0.534655 0.114688 2.56024 -17.3221 3.56525 -7.05845 -17.3161 10.7645 -5.28998 -0.0 0.0 -0.0 7.26241 -23.3628 13.0614 -7.19802 -31.4294 54.0231 1.26207 -32.012 0.362049 -52.6006 -4.37951 4.81196 -1.04595 -0.766112 -7.34128 -0.0 0.0 -0.0 9.22628 -15.3007 -16.8532 -33.3387 40.8753 -59.3801 0.360503 10.1255 -0.0319379 27.2472 -0.143201 3.44503 1.1018 20.0621 1.21477 0.0 0.0 0.0 12.2858 -12.7777 11.285 -1.46364 0.0574924 0.217253 20.4355 -3.50754 -2.83261 -17.4615 0.0 0.0 -0.0 0.0 -0.0 28.199 -7.15763 10.8662 -47.2291 0.9895 -6.97897 13.7739 -27.8582 2.0576 5.61837 -0.0 -0.0 0.0 0.0 0.0 
753.247682487 614.92 -1595.07594586 -170.467823383 72.868493178 164.932048775 0.605886 0.374378 2.31569 0.608841 0.226307 2.33481 0.619159 -0.244344 2.33299 0.611586 0.127071 2.3423 -16.3273 4.23077 -6.22149 -16.3592 11.6683 -4.3481 -0.0 0.0 -0.0 7.07498 -22.9 12.6931 -7.4529 -32.1197 54.6739 1.28475 -32.4723 0.374148 -53.8862 -4.5337 4.87056 -0.911069 -0.573746 -6.34764 -0.0 0.0 -0.0 9.03247 -14.742 -16.5857 -33.5936 41.4846 -60.171 0.382315 10.7243 -0.0358848 26.2648 -0.166616 3.32174 1.0931 19.0109 0.806607 0.0 0.0 0.0 11.8506 -11.4458 10.0126 -2.74704 0.103318 0.408881 21.9124 -5.00332 -3.03038 -14.9242 0.0 0.0 -0.0 0.0 -0.0 26.269 -2.15347 8.41657 -43.2987 0.689858 -6.45379 14.3279 -29.7813 2.16426 3.2737 -0.0 -0.0 0.0 0.0 0.0 
752.889949215 614.92 -1596.26495095 -170.339108735 73.1014599684 164.797442417 0.605886 0.374378 2.31569 0.608841 0.226307 2.33481 0.619159 -0.244344 2.33299 0.611586 0.127071 2.3423 -16.3273 4.23077 -6.22149 -16.3592 11.6683 -4.3481 -0.0 0.0 -0.0 7.07498 -22.9 12.6931 -7.4529 -32.1197 54.6739 1.28475 -32.4723 0.374148 -53.8862 -4.5337 4.87056 -0.911069 -0.573746 -6.34764 -0.0 0.0 -0.0 9.03247 -14.742 -16.5857 -33.5936 41.4846 -60.171 0.382315 10.7243 -0.0358848 26.2648 -0.166616 3.32174 1.0931 19.0109 0.806607 0.0 0.0 0.0 11.8506 -11.4458 10.0126 -2.74704 0.103318 0.408881 21.9124 -5.00332 -3.03038 -14.9242 0.0 0.0 -0.0 0.0 -0.0 26.269 -2.15347 8.41657 -43.2987 0.689858 -6.45379 14.3279 -29.7813 2.16426 3.2737 -0.0 -0.0 0.0 0.0 0.0 
751.507933874 618.861 -1583.02560769 -170.342686992 67.7107696056 165.353026894 0.581115 0.318604 2.06388 0.583466 0.186658 2.07996 0.591116 -0.233332 2.07524 0.585119 0.0972679 2.08605 -14.9123 4.76263 -5.58468 -14.9575 12.4285 -3.70648 -0.0 0.0 -0.0 6.61723 -22.7198 11.7081 -7.97011 -33.0145 55.2861 1.36423 -34.0489 0.41774 -54.7323 -4.63586 4.90723 -0.945906 -0.791789 -6.67813 -0.0 0.0 -0.0 9.04486 -14.0316 -16.6866 -34.0893 41.9661 -60.6799 0.454066 12.6768 -0.0504378 26.9734 -0.14994 3.41071 0.691325 15.9337 2.13995 0.0 0.0 0.0 13.4142 -10.5751 8.60141 -4.18119 0.149428 0.624145 22.0495 -11.3245 -3.13895 -14.3963 0.0 0.0 -0.0 0.0 -0.0 21.999 5.44973 8.38588 -24.6593 -0.211313 -3.74916 20.2651 -18.925 2.82323 1.59019 -0.0 -0.0 0.0 0.0 0.0 
750.496017459 618.861 -1586.02742681 -170.093601927 68.2944169806 165.084388464 0.581115 0.318604 2.06388 0.583466 0.186658 2.07996 0.591116 -0.233332 2.07524 0.585119 0.0972679 2.08605 -14.9123 4.76263 -5.58468 -14.9575 12.4285 -3.70648 -0.0 0.0 -0.0 6.61723 -22.7198 11.7081 -7.97011 -33.0145 55.2861 1.36423 -34.0489 0.41774 -54.7323 -4.63586 4.90723 -0.945906 -0.791789 -6.67813 -0.0 0.0 -0.0 9.04486 -14.0316 -16.6866 -34.0893 41.9661 -60.6799 0.454066 12.6768 -0.0504378 26.9734 -0.14994 3.41071 0.691325 15.9337 2.13995 0.0 0.0 0.0 13.4142 -10.5751 8.60141 -4.18119 0.149428 0.624145 22.0495 -11.3245 -3.13895 -14.3963 0.0 0.0 -0.0 0.0 -0.0 21.999 5.44973 8.38588 -24.6593 -0.211313 -3.74916 20.2651 -18.925 2.82323 1.59019 -0.0 -0.0 0.0 0.0 0.0 
749.953496642 616.107 -1583.06069182 -170.690068405 66.0737422873 165.856680647 0.618924 0.255864 2.0124 0.621168 0.127318 2.02459 0.626429 -0.279184 2.0093 0.620798 0.0415829 2.02816 -16.0851 4.51031 -5.87243 -16.1334 12.0241 -3.94269 -0.0 0.0 -0.0 6.56267 -23.8829 11.4801 -8.81426 -33.2785 55.2817 1.34661 -33.7043 0.407919 -55.5029 -4.72937 4.93932 -0.841942 -0.850985 -6.00412 -0.0 0.0 -0.0 8.88688 -14.7702 -16.3319 -33.178 42.5277 -60.4185 0.462446 12.903 -0.0522928 27.1759 -0.14497 3.43611 0.52901 14.3094 2.52775 0.0 0.0 0.0 13.9431 -9.48278 7.92822 -5.12748 0.176894 0.766772 22.729 -15.1913 -3.30417 -12.6614 0.0 0.0 -0.0 0.0 -0.0 20.8264 8.09837 8.02941 -21.3289 -0.277478 -3.24246 22.0657 -13.5522 3.0034 0.588668 -0.0 -0.0 0.0 0.0 0.0 
747.604906138 615.672 -1578.31417071 -170.889796445 64.9495176986 166.220959846 0.745038 0.276736 1.91702 0.74707 0.154213 1.93074 0.752915 -0.229832 1.92321 0.747761 0.0767284 1.93537 -16.5547 4.55406 -6.26264 -16.6049 12.2906 -4.2468 -0.0 0.0 -0.0 6.49776 -24.3974 11.2885 -9.58324 -33.7111 55.4177 1.34421 -33.6573 0.406593 -55.862 -4.77308 4.95383 -0.737285 -1.50216 -5.58405 -0.0 0.0 -0.0 8.95052 -15.4656 -16.3625 -33.1588 42.6915 -59.9428 0.474221 13.2202 -0.0549542 27.4415 -0.138318 3.46938 0.356952 12.9024 3.08171 0.0 0.0 0.0 14.1769 -9.14644 7.53354 -5.87375 0.19689 0.879552 23.0309 -17.1836 -3.39191 -12.7303 0.0 0.0 -0.0 0.0 -0.0 19.6976 8.9559 8.79401 -20.9783 -0.282727 -3.18892 24.5157 -7.14406 3.27449 0.690947 -0.0 -0.0 0.0 0.0 0.0 
732.311397243 615.407 -1567.19624259 -171.879137214 62.8245991129 167.090763195 0.813451 0.500093 2.00913 0.81562 0.371261 2.03686 0.829649 -0.0350947 2.07011 0.823788 0.292211 2.04969 -16.7947 5.10398 -5.29243 -16.8945 12.7764 -3.10522 -0.0 0.0 -0.0 6.7171 -24.7982 11.729 -12.514 -35.6552 55.9688 1.20117 -30.7526 0.330335 -58.4222 -5.08721 5.04936 -0.671525 -3.96644 -6.21102 -0.0 0.0 -0.0 8.98074 -19.0803 -15.961 -33.0675 42.5537 -59.2901 0.498452 13.8702 -0.0606294 29.1153 -0.0928506 3.67835 0.346854 16.7652 4.80702 0.0 0.0 0.0 13.4148 -6.0185 6.87634 -7.79798 0.241651 1.17144 23.7786 -20.0924 -3.57163 -12.2732 0.0 0.0 -0.0 0.0 -0.0 17.8524 7.2185 8.59756 -18.9266 -0.306867 -2.87504 20.1923 -5.87774 2.75513 2.78585 -0.0 -0.0 0.0 0.0 0.0 
